<?xml version="1.0" standalone="no"?>
<!DOCTYPE svg PUBLIC "-//W3C//DTD SVG 20010904//EN"
 "http://www.w3.org/TR/2001/REC-SVG-20010904/DTD/svg10.dtd">
<svg version="1.0" xmlns="http://www.w3.org/2000/svg"
 width="512.000000pt" height="512.000000pt" viewBox="0 0 512.000000 512.000000"
 preserveAspectRatio="xMidYMid meet">
<metadata>
Created by potrace 1.11, written by Peter Selinger 2001-2013
</metadata>
<g transform="translate(0.000000,512.000000) scale(0.100000,-0.100000)"
fill="#000000" stroke="none">
<path d="M2524 4505 c-92 -16 -209 -56 -270 -92 -62 -35 -131 -114 -139 -157
-12 -61 3 -104 52 -157 57 -61 109 -91 220 -128 330 -109 774 -31 894 157 91
143 -35 291 -307 363 -103 27 -333 35 -450 14z"/>
<path d="M1511 3585 l-1 -580 111 -18 c200 -32 399 -111 557 -220 39 -27 111
-91 160 -141 121 -127 172 -228 218 -431 6 -26 8 -21 19 40 54 305 333 578
716 699 155 49 279 68 461 70 l158 1 -1 575 c-1 323 -5 554 -9 528 -27 -161
-112 -309 -251 -444 -422 -405 -1203 -459 -1731 -119 -89 58 -251 220 -297
297 -47 81 -82 171 -96 253 -11 61 -13 -8 -14 -510z"/>
<path d="M1174 2395 c-92 -16 -209 -56 -270 -92 -62 -35 -131 -114 -139 -157
-12 -61 3 -104 52 -157 57 -61 109 -91 220 -128 330 -109 774 -31 894 157 91
143 -35 291 -307 363 -103 27 -333 35 -450 14z"/>
<path d="M3574 2395 c-92 -16 -209 -56 -270 -92 -62 -35 -131 -114 -139 -157
-12 -61 3 -104 52 -157 57 -61 109 -91 220 -128 330 -109 774 -31 894 157 91
143 -35 291 -307 363 -103 27 -333 35 -450 14z"/>
<path d="M161 1445 c-1 -656 1 -677 52 -805 40 -97 86 -167 174 -260 168 -177
381 -289 673 -351 90 -20 135 -23 310 -23 189 0 214 2 325 28 351 82 621 261
768 508 33 55 71 159 93 253 6 27 8 25 19 -31 30 -143 95 -260 212 -384 168
-177 381 -289 673 -351 90 -20 135 -23 310 -23 189 0 214 2 325 28 420 98 726
337 833 651 l27 80 2 640 c0 357 -3 619 -7 593 -28 -162 -112 -309 -251 -444
-422 -405 -1203 -459 -1731 -119 -89 58 -251 220 -297 297 -47 82 -82 172 -96
253 -13 74 -16 73 -33 -17 -13 -70 -49 -161 -93 -235 -47 -78 -185 -221 -271
-280 -456 -315 -1137 -322 -1610 -18 -89 58 -251 220 -297 297 -47 81 -82 171
-96 253 -11 60 -13 -14 -14 -540z"/>
</g>
</svg>
