<?xml version="1.0" standalone="no"?>
<!DOCTYPE svg PUBLIC "-//W3C//DTD SVG 20010904//EN"
 "http://www.w3.org/TR/2001/REC-SVG-20010904/DTD/svg10.dtd">
<svg version="1.0" xmlns="http://www.w3.org/2000/svg"
 width="512.000000pt" height="512.000000pt" viewBox="0 0 512.000000 512.000000"
 preserveAspectRatio="xMidYMid meet">
<metadata>
Created by potrace 1.16, written by Peter Selinger 2001-2019
</metadata>
<g transform="translate(0.000000,512.000000) scale(0.100000,-0.100000)"
fill="#000000" stroke="none">
<path d="M793 5101 c-217 -80 -332 -315 -264 -539 74 -246 357 -368 596 -258
l52 24 454 -454 454 -454 -1043 0 -1042 0 0 -345 0 -345 85 0 85 0 2 -1227 3
-1228 32 -60 c39 -74 110 -144 183 -182 l55 -28 2115 0 2115 0 55 28 c73 38
144 108 183 182 l32 60 3 1228 2 1227 85 0 85 0 0 345 0 345 -1042 0 -1043 0
454 454 454 454 52 -24 c239 -110 522 12 596 258 45 148 9 313 -91 422 -93
100 -193 140 -338 134 -83 -3 -107 -8 -162 -34 -213 -101 -304 -338 -215 -558
l27 -69 -518 -518 -519 -519 -215 0 -215 0 -519 519 -518 518 27 69 c89 220
-2 457 -215 558 -58 27 -76 31 -170 33 -83 2 -116 -1 -157 -16z m258 -188 c62
-32 113 -93 130 -156 11 -40 7 -126 -7 -148 -3 -6 -48 30 -104 85 -90 89 -100
96 -136 96 -42 -1 -64 -13 -82 -47 -27 -50 -17 -71 89 -178 l100 -103 -51 -12
c-82 -20 -164 6 -229 71 -45 45 -63 85 -69 154 -6 77 23 149 80 201 54 48 92
63 164 64 47 0 73 -6 115 -27z m3223 13 c53 -22 112 -82 136 -138 18 -42 21
-65 18 -113 -6 -69 -24 -109 -69 -154 -65 -65 -147 -91 -229 -71 l-51 12 100
103 c106 107 116 128 89 178 -18 34 -40 46 -82 47 -36 0 -46 -7 -136 -96 -56
-55 -101 -91 -104 -85 -14 22 -18 108 -7 148 37 136 208 222 335 169z m-1879
-1816 c174 -172 156 -172 330 0 l131 130 1042 0 1042 0 0 -165 0 -165 -2380 0
-2380 0 0 165 0 165 1042 0 1042 0 131 -130z m2373 -1587 l-3 -1208 -27 -40
c-15 -22 -44 -51 -65 -65 l-37 -25 -2076 0 -2076 0 -37 25 c-21 14 -50 43 -65
65 l-27 40 -3 1208 -2 1207 2210 0 2210 0 -2 -1207z"/>
<path d="M792 2370 c-29 -28 -37 -64 -21 -101 21 -51 55 -59 253 -59 226 0
255 11 256 96 0 30 -6 46 -23 62 -22 21 -31 22 -233 22 -197 0 -212 -1 -232
-20z"/>
<path d="M1811 2364 c-30 -38 -28 -94 5 -125 25 -24 27 -24 236 -24 l210 0 24
28 c13 15 24 39 24 53 0 32 -25 80 -45 88 -9 3 -110 6 -225 6 l-209 0 -20 -26z"/>
<path d="M2852 2383 c-18 -7 -42 -57 -42 -87 0 -14 11 -38 24 -53 l24 -28 210
0 c209 0 211 0 236 24 33 31 35 87 5 125 l-20 26 -212 -1 c-117 0 -218 -3
-225 -6z"/>
<path d="M3862 2367 c-25 -27 -30 -91 -8 -119 23 -31 66 -38 242 -38 198 0
232 8 253 59 16 37 8 73 -21 101 -20 19 -35 20 -233 20 -208 0 -212 0 -233
-23z"/>
<path d="M792 2028 c-11 -13 -23 -35 -27 -49 -9 -35 18 -87 51 -99 14 -6 108
-10 210 -10 235 0 254 8 254 100 0 30 -6 43 -26 59 -25 20 -39 21 -234 21
-201 0 -207 -1 -228 -22z"/>
<path d="M1815 2025 c-38 -37 -35 -95 6 -130 l32 -26 204 3 205 3 24 28 c13
15 24 39 24 53 0 32 -25 80 -45 88 -9 3 -109 6 -221 6 -204 0 -205 0 -229 -25z"/>
<path d="M2852 2043 c-18 -7 -42 -57 -42 -87 0 -14 11 -38 24 -53 l24 -28 205
-3 204 -3 32 26 c41 35 44 93 6 130 -24 25 -24 25 -232 24 -114 0 -214 -3
-221 -6z"/>
<path d="M3866 2029 c-20 -16 -26 -29 -26 -59 0 -92 19 -100 254 -100 102 0
196 4 210 10 33 12 60 64 51 99 -4 14 -16 36 -27 49 -21 21 -27 22 -228 22
-195 0 -209 -1 -234 -21z"/>
<path d="M793 1686 c-40 -34 -39 -98 1 -133 l28 -24 210 3 c207 3 210 3 229
27 12 15 19 39 19 66 0 35 -5 48 -26 64 -25 20 -39 21 -230 21 -200 0 -203 0
-231 -24z"/>
<path d="M1815 1685 c-17 -16 -25 -35 -25 -59 0 -89 20 -96 265 -96 l197 0 29
29 c37 37 38 79 3 120 l-26 31 -209 0 c-210 0 -210 0 -234 -25z"/>
<path d="M2836 1679 c-35 -41 -34 -83 3 -120 l29 -29 197 0 c245 0 265 7 265
96 0 24 -8 43 -25 59 -24 25 -24 25 -234 25 l-209 0 -26 -31z"/>
<path d="M3866 1689 c-21 -16 -26 -29 -26 -64 0 -27 7 -51 19 -66 19 -24 22
-24 229 -27 l210 -3 28 24 c40 35 41 99 1 133 -28 24 -31 24 -231 24 -191 0
-205 -1 -230 -21z"/>
<path d="M793 1346 c-22 -19 -28 -32 -28 -66 0 -34 6 -47 28 -66 28 -24 31
-24 233 -24 204 0 205 0 229 25 19 18 25 35 25 65 0 30 -6 47 -25 65 -24 25
-25 25 -229 25 -202 0 -205 0 -233 -24z"/>
<path d="M1815 1345 c-19 -18 -25 -35 -25 -65 0 -30 6 -47 25 -65 24 -25 25
-25 230 -25 l207 0 29 29 c20 20 29 39 29 61 0 22 -9 41 -29 61 l-29 29 -207
0 c-205 0 -206 0 -230 -25z"/>
<path d="M2839 1341 c-20 -20 -29 -39 -29 -61 0 -22 9 -41 29 -61 l29 -29 207
0 c205 0 206 0 230 25 19 18 25 35 25 65 0 30 -6 47 -25 65 -24 25 -25 25
-230 25 l-207 0 -29 -29z"/>
<path d="M3865 1345 c-35 -34 -35 -96 0 -130 24 -25 25 -25 229 -25 202 0 205
0 233 24 39 34 39 98 0 132 -28 24 -31 24 -233 24 -204 0 -205 0 -229 -25z"/>
<path d="M794 1007 c-40 -35 -41 -99 -1 -133 28 -24 31 -24 231 -24 191 0 205
1 230 21 21 16 26 29 26 64 0 27 -7 51 -19 66 -19 24 -22 24 -229 27 l-210 3
-28 -24z"/>
<path d="M1835 1018 c-52 -28 -63 -101 -20 -143 24 -25 24 -25 234 -25 l209 0
26 31 c35 41 34 83 -3 120 l-29 29 -199 0 c-124 0 -205 -5 -218 -12z"/>
<path d="M2839 1001 c-37 -37 -38 -79 -3 -120 l26 -31 209 0 c210 0 210 0 234
25 17 16 25 35 25 59 0 89 -20 96 -265 96 l-197 0 -29 -29z"/>
<path d="M3883 1020 c-29 -12 -43 -40 -43 -89 0 -31 6 -44 26 -60 25 -20 39
-21 230 -21 200 0 203 0 231 24 22 19 28 32 28 66 0 34 -6 47 -28 66 -28 24
-31 24 -225 23 -108 0 -207 -4 -219 -9z"/>
<path d="M813 680 c-30 -12 -56 -66 -48 -99 4 -14 16 -36 27 -48 21 -22 27
-23 228 -23 195 0 209 1 234 21 20 16 26 29 26 59 0 93 -19 100 -257 99 -103
0 -198 -4 -210 -9z"/>
<path d="M1821 665 c-41 -35 -44 -93 -6 -130 24 -25 25 -25 229 -25 112 0 212
3 221 6 20 8 45 56 45 88 0 14 -11 38 -24 53 l-24 28 -205 3 -204 3 -32 -26z"/>
<path d="M2864 680 c-28 -11 -54 -48 -54 -78 0 -30 25 -78 45 -86 9 -3 109 -6
221 -6 204 0 205 0 229 25 38 37 35 95 -6 129 l-31 26 -191 -1 c-106 0 -202
-4 -213 -9z"/>
<path d="M3885 678 c-33 -18 -45 -40 -45 -84 0 -34 5 -47 26 -63 25 -20 39
-21 234 -21 201 0 207 1 228 23 11 12 23 34 27 48 9 35 -18 87 -51 99 -36 14
-394 12 -419 -2z"/>
</g>
</svg>
